<svg xmlns="http://www.w3.org/2000/svg" width="199.873" height="44.863" viewBox="0 0 199.873 44.863">
  <g id="logo-horizontal-colour" transform="translate(72.798 -0.568)">
    <g id="Group_6582" data-name="Group 6582" transform="translate(-14.478 0.568)">
      <g id="Group_3" data-name="Group 3" transform="translate(79.928 0)">
        <path id="Path_1" data-name="Path 1" d="M148.031,34.726l-8.055-13.8,8.055-13.8h16.11l3.278,5.615a.62.62,0,0,0,.536.308h6.212a.613.613,0,0,0,.536-.92l-5.122-8.78A5.637,5.637,0,0,0,164.726.568h-17.28a5.635,5.635,0,0,0-4.854,2.773L133.95,18.15a5.514,5.514,0,0,0,0,5.547L142.591,38.5a5.632,5.632,0,0,0,4.854,2.773h9.5a.613.613,0,0,0,.537-.919l-3.106-5.324a.62.62,0,0,0-.536-.306h-5.814Z" transform="translate(-133.202 -0.568)" fill="#fff" fill-rule="evenodd"/>
        <g id="Group_1" data-name="Group 1" transform="translate(20.04 0)">
          <path id="Path_2" data-name="Path 2" d="M27.305,7.077l8.055,13.8-8.055,13.8H11.2L7.917,29.069a.621.621,0,0,0-.536-.307H1.169a.613.613,0,0,0-.536.919l5.122,8.78a5.635,5.635,0,0,0,4.855,2.773h17.28a5.634,5.634,0,0,0,4.854-2.773l8.641-14.807a5.514,5.514,0,0,0,0-5.547L32.744,3.3A5.628,5.628,0,0,0,27.891.527h-9.5a.614.614,0,0,0-.538.919l3.107,5.324a.62.62,0,0,0,.536.306Z" transform="translate(-0.549 -0.527)" fill="#fff" fill-rule="evenodd"/>
        </g>
      </g>
      <g id="Group_6581" data-name="Group 6581" transform="translate(-73.828)">
        <path id="Path_3" data-name="Path 3" d="M82.335,26.624V41.167h2.119V35.5l4,5.86,2.089-.788-3.7-4.99,2.807-3.541-1.885-.95-3.314,4.366v-8.83ZM68.724,41.168H66.363V28.546H61.509V26.624H73.485v1.922h-4.76Zm36,0H102.5v-8.35H101V30.945h1.5v-.188a4.163,4.163,0,0,1,1.029-3.176,3.732,3.732,0,0,1,2.631-.958c.391,0,1.7.179,1.7.179v1.8s-1.129-.133-1.415-.133a2.16,2.16,0,0,0-1.25.359c-.217.133-.467.544-.467,1.621v.5h2.993v1.873h-2.993v8.35Z" transform="translate(16.807 -0.453)" fill="#fff" fill-rule="evenodd"/>
        <path id="Path_4" data-name="Path 4" d="M13.718,41.326h2.15V26.919h-2.15ZM5.347,27.635,0,41.326H2.035l1.387-3.841H8.58l1.256,3.841h2.5L7.41,27.635H5.348ZM6.1,30.058,8.129,36.13H3.906l2.2-6.072ZM56.179,41.326h2.15V31.649h-2.15Zm0-11.285h2.15V28.156h-2.15Zm-15.363,0h2.15V28.156h-2.15Zm4.324-3.122v14.4h2.151v-5.8a2.408,2.408,0,0,1,2.4-2.7c1.362,0,2.157.886,2.157,2.53v5.971H54V35.035c0-2.417-1.109-3.636-3.274-3.636a4.194,4.194,0,0,0-3.155,1.375l-.3.339v-6.2H45.141Zm74.055,14.4V31.678h-2.151v5.835a2.406,2.406,0,0,1-2.409,2.686c-1.362,0-2.157-.9-2.157-2.5V31.678h-2.152v6.3c0,2.424,1.107,3.634,3.272,3.634a4.124,4.124,0,0,0,3.148-1.368l.312-.336v1.417h2.135ZM20.708,27.635V41.322h2.15V35.551h1.807s2.7,5.772,2.814,6.007c.209-.048,2.1-.4,2.471-.473-.217-.425-3.15-5.957-3.15-5.957l.15-.09a4.3,4.3,0,0,0,2.189-3.914c0-2.193-1.557-3.489-4.146-3.489H20.708Zm2.15,1.355h1.778a2.183,2.183,0,0,1,2.324,2.378A2.661,2.661,0,0,1,24.325,34.2H22.859v-5.2Zm17.958,2.657v9.765a7.575,7.575,0,0,1-.374,2.553,1.524,1.524,0,0,1-.982.789v.678c2.461-.033,3.507-1.267,3.507-4.108V31.648h-2.15Zm-5.73-.247a5.186,5.186,0,0,0-3.446,1.234c.126.188.5.75.641.974a3.568,3.568,0,0,1,2.477-.958,1.843,1.843,0,0,1,1.807,1.714l.015.152-2.289.7c-2.338.706-3.436,1.818-3.436,3.487a2.645,2.645,0,0,0,2.594,2.87,4.129,4.129,0,0,0,3.2-1.915v1.666h2.206V34.967c0-2.362-1.263-3.567-3.771-3.567m.639,8.057a1.831,1.831,0,0,1-1.358.679A1.491,1.491,0,0,1,33.045,38.5a2.488,2.488,0,0,1,2-2.5l1.407-.49.237-.08.014.246a4.953,4.953,0,0,1-.981,3.782M77.513,31.4a5.179,5.179,0,0,0-3.449,1.234c.132.188.5.75.637.974a3.593,3.593,0,0,1,2.494-.958,1.849,1.849,0,0,1,1.8,1.714l.007.152-2.29.7c-2.321.706-3.428,1.818-3.428,3.487a2.645,2.645,0,0,0,2.586,2.87,4.152,4.152,0,0,0,3.21-1.915v1.666h2.2V34.967c0-2.362-1.26-3.567-3.762-3.567m.631,8.057a1.825,1.825,0,0,1-1.355.679A1.489,1.489,0,0,1,75.466,38.5,2.489,2.489,0,0,1,77.458,36l1.4-.49.25-.08.013.246a4.9,4.9,0,0,1-.98,3.782M97.07,31.4a5.177,5.177,0,0,0-3.46,1.234c.126.188.483.75.623.974a3.648,3.648,0,0,1,2.494-.958,1.834,1.834,0,0,1,1.807,1.714l.022.152-2.283.7c-2.343.706-3.441,1.818-3.441,3.487a2.653,2.653,0,0,0,2.578,2.87,4.109,4.109,0,0,0,3.2-1.915v1.666h2.213V34.967c0-2.362-1.27-3.567-3.756-3.567m.623,8.057a1.8,1.8,0,0,1-1.363.679A1.505,1.505,0,0,1,95,38.5a2.485,2.485,0,0,1,2.01-2.5l1.434-.49.219-.08.016.246a4.92,4.92,0,0,1-.983,3.782m23.277,1.87h2.165V26.919H120.97ZM3.852,22.6H6.5V20.285H3.852Zm3.706,0H10.21V20.285H7.557Zm28.769-1.64h2.653V18.671H36.326ZM89.851,2.852H92.5V.59H89.851ZM36.229,5.573a11.3,11.3,0,0,0-1.815.16V7.642a4.274,4.274,0,0,1,1.944-.4c2.715,0,5.593,2.516,5.593,7.127a2.725,2.725,0,0,1-.081.654H32.5v-.612c0-5.2-3.554-8.842-8.637-8.842a11.4,11.4,0,0,0-1.912.176V7.611l.072.031a4.293,4.293,0,0,1,1.961-.4c2.713,0,5.59,2.516,5.59,7.127l-.013.654H19.03V5.573H16.65c-6.458,0-6.668,3.278-6.668,7.145V15.1c0,1.881-.667,2.249-1.685,2.249H6.221c-1.315,0-3.484-.192-3.484-4.917,0-4,1.767-5.316,5.286-5.293V5.572C5.316,5.586,3.6,6.1,2.029,7.591A6.033,6.033,0,0,0,.1,12.466c0,4.9,2.177,6.553,5.147,6.553H8.973c2.361,0,3.679-1.463,3.679-4.169v-2.5c0-3.281.48-5.128,3.735-5.128v9.489H44.572a14.678,14.678,0,0,0,.322-2.468c-.129-5.107-3.632-8.674-8.663-8.674m84.357-1.135h2.66V2.128h-2.66Zm-3.7,0h2.659V2.128h-2.659ZM47.43,16.715h2.654V.578H47.43Zm45.285-5.348H90.659a2.061,2.061,0,1,1,0-4.121h2.056Zm.451-5.781H90.1a3.647,3.647,0,1,0,0,7.294h2.674v.254c0,1.254-.593,1.94-1.739,1.94H82.966V.589h-2.65V15.114c0,1.884-.659,2.25-1.7,2.25H76.555c-1.317,0-3.487-.192-3.487-4.915,0-4,1.769-5.319,5.271-5.3V5.586c-2.69.015-4.4.1-5.977,1.595a6.969,6.969,0,0,0-1.961,5.3c0,4.9,2.185,6.554,5.174,6.554H79.3a3.258,3.258,0,0,0,3.39-2.306h8.986a3.3,3.3,0,0,0,2.8-1.288,4.436,4.436,0,0,0,.893-2.818V5.589H93.167v0Zm-35.2,7.008c0,2.033-.972,2.431-1.783,2.431h-.932V5.572H52.628V16.823a6.09,6.09,0,0,1-.458,3.12,2.192,2.192,0,0,1-1.219,1.005v.795c3.013-.051,4.305-1.576,4.305-5.028h1.573a3.438,3.438,0,0,0,2.88-1.3,4.593,4.593,0,0,0,.914-2.9V.576H57.969V12.593Zm5.174,4.12H65.8V.578H63.144Z" transform="translate(15.508 -0.568)" fill="#fff" fill-rule="evenodd"/>
        <path id="Path_5" data-name="Path 5" d="M118.54,5.51V12.7c0,2.054-.98,2.457-1.784,2.457H113.7V14.5c0-4.857-3.047-8.365-7.533-8.861L113.834.578h-2.876l-7.8,5.172V7.63l.074.033a4.259,4.259,0,0,1,1.961-.4c2.713,0,5.59,2.54,5.59,7.2l-.012.7h-8.94c-.8,0-1.768-.4-1.768-2.457V.568H97.423V12.614a4.657,4.657,0,0,0,.915,2.934,3.409,3.409,0,0,0,2.868,1.315H117.4a3.365,3.365,0,0,0,2.859-1.315,4.656,4.656,0,0,0,.932-2.934V5.51Z" transform="translate(17.566 -0.568)" fill="#fff" fill-rule="evenodd"/>
      </g>
    </g>
  </g>
</svg>
