<?xml version="1.0" standalone="no"?>
<!DOCTYPE svg PUBLIC "-//W3C//DTD SVG 20010904//EN"
 "http://www.w3.org/TR/2001/REC-SVG-20010904/DTD/svg10.dtd">
<svg version="1.0" xmlns="http://www.w3.org/2000/svg"
 width="226.000000pt" height="79.000000pt" viewBox="0 0 226.000000 79.000000"
 preserveAspectRatio="xMidYMid meet">

<g transform="translate(0.000000,79.000000) scale(0.100000,-0.100000)"
fill="#ffffff" stroke="none">
<path d="M182 718 c-71 -61 -105 -103 -138 -173 -29 -61 -29 -62 -3 -104 l20
-34 37 36 c41 39 111 77 142 77 19 0 20 6 20 125 0 69 -4 125 -8 125 -4 0 -36
-24 -70 -52z"/>
<path d="M300 652 l0 -118 55 -23 c57 -24 115 -73 165 -142 l30 -42 0 55 c0
79 -32 173 -82 239 -41 54 -143 149 -160 149 -4 0 -8 -53 -8 -118z"/>
<path d="M1010 680 c0 -88 0 -90 26 -96 14 -4 42 -2 61 4 23 7 44 7 60 1 13
-5 42 -9 64 -9 l39 0 0 95 c0 57 -4 95 -10 95 -6 0 -10 -35 -10 -85 0 -82 -1
-85 -22 -85 -13 0 -33 3 -45 6 -21 6 -21 7 -6 30 21 32 10 54 -26 54 -60 0
-78 -24 -45 -61 14 -16 13 -18 -15 -24 -17 -3 -35 -4 -41 0 -5 3 -10 42 -10
86 0 46 -4 79 -10 79 -6 0 -10 -37 -10 -90z m143 -16 c3 -4 2 -15 -4 -26 -10
-19 -12 -19 -30 -2 -10 9 -19 21 -19 26 0 9 44 11 53 2z"/>
<path d="M1310 675 c0 -57 4 -95 10 -95 6 0 10 38 10 95 0 57 -4 95 -10 95 -6
0 -10 -38 -10 -95z"/>
<path d="M1930 691 c0 -85 -6 -97 -46 -87 -20 5 -24 13 -24 41 0 24 -5 35 -15
35 -10 0 -15 -10 -15 -34 0 -19 -5 -38 -10 -41 -17 -10 -50 5 -50 23 0 29 -30
62 -56 62 -13 0 -24 -4 -24 -10 0 -5 8 -10 18 -10 25 0 42 -19 42 -47 0 -21
-5 -23 -44 -23 -65 0 -76 7 -76 46 0 49 -28 46 -32 -3 -3 -33 -6 -38 -28 -38
-23 0 -25 4 -28 48 -2 26 -8 47 -13 47 -20 0 -87 -40 -92 -55 -9 -23 3 -45 27
-49 34 -7 45 -7 389 -11 l327 -4 0 95 c0 56 -4 94 -10 94 -6 0 -10 -35 -10
-85 0 -84 0 -85 -25 -85 -18 0 -28 8 -36 28 -6 15 -14 34 -19 42 -9 19 -49 25
-63 11 -8 -8 -3 -11 16 -11 20 0 30 -7 37 -26 16 -40 13 -44 -32 -44 -86 0
-88 2 -88 91 0 46 -4 79 -10 79 -6 0 -10 -33 -10 -79z m-410 -45 c0 -30 -33
-44 -57 -25 -13 12 -13 15 7 31 31 25 50 23 50 -6z"/>
<path d="M2230 675 c0 -57 4 -95 10 -95 6 0 10 38 10 95 0 57 -4 95 -10 95 -6
0 -10 -38 -10 -95z"/>
<path d="M740 740 c0 -5 5 -10 10 -10 6 0 10 5 10 10 0 6 -4 10 -10 10 -5 0
-10 -4 -10 -10z"/>
<path d="M775 740 c-3 -5 1 -10 9 -10 9 0 16 5 16 10 0 6 -4 10 -9 10 -6 0
-13 -4 -16 -10z"/>
<path d="M1475 740 c-3 -5 1 -10 9 -10 9 0 16 5 16 10 0 6 -4 10 -9 10 -6 0
-13 -4 -16 -10z"/>
<path d="M1510 740 c0 -5 7 -10 16 -10 8 0 12 5 9 10 -3 6 -10 10 -16 10 -5 0
-9 -4 -9 -10z"/>
<path d="M2030 730 c0 -5 5 -10 10 -10 6 0 10 5 10 10 0 6 -4 10 -10 10 -5 0
-10 -4 -10 -10z"/>
<path d="M743 680 c-34 -15 -43 -24 -43 -43 0 -31 23 -51 50 -44 11 3 34 0 50
-6 23 -9 35 -9 50 1 15 9 26 10 41 2 43 -23 91 21 71 65 -23 49 -63 36 -113
-36 -25 -36 -49 -19 -49 36 0 25 -3 45 -7 45 -5 0 -27 -9 -50 -20z m37 -34 c0
-16 -7 -27 -20 -31 -38 -12 -57 24 -22 44 28 17 42 12 42 -13z m165 -4 c8 -22
-18 -45 -44 -37 -25 8 -27 27 -6 49 18 17 41 12 50 -12z"/>
<path d="M1580 540 c0 -5 4 -10 9 -10 6 0 13 5 16 10 3 6 -1 10 -9 10 -9 0
-16 -4 -16 -10z"/>
<path d="M1620 540 c0 -5 5 -10 10 -10 6 0 10 5 10 10 0 6 -4 10 -10 10 -5 0
-10 -4 -10 -10z"/>
<path d="M1710 540 c0 -5 5 -10 10 -10 6 0 10 5 10 10 0 6 -4 10 -10 10 -5 0
-10 -4 -10 -10z"/>
<path d="M1815 540 c4 -6 11 -8 16 -5 14 9 11 15 -7 15 -8 0 -12 -5 -9 -10z"/>
<path d="M1850 540 c0 -5 4 -10 9 -10 6 0 13 5 16 10 3 6 -1 10 -9 10 -9 0
-16 -4 -16 -10z"/>
<path d="M720 472 c-16 -13 -23 -29 -22 -53 1 -41 23 -59 74 -59 37 0 38 1 38
35 0 31 -3 35 -25 35 -14 0 -25 -4 -25 -10 0 -5 7 -10 15 -10 8 0 15 -7 15
-16 0 -11 -8 -14 -32 -12 -29 3 -33 7 -36 35 -2 24 2 34 18 43 12 6 28 9 37 6
21 -8 39 4 22 15 -23 14 -55 10 -79 -9z"/>
<path d="M860 437 c0 -61 11 -77 55 -77 44 0 55 16 55 77 0 69 -18 69 -22 1
-3 -51 -4 -53 -33 -53 -29 0 -30 2 -33 53 -4 68 -22 68 -22 -1z"/>
<path d="M1020 425 l0 -65 40 0 c22 0 40 5 40 10 0 6 -13 10 -30 10 -30 0 -30
1 -30 55 0 30 -4 55 -10 55 -6 0 -10 -28 -10 -65z"/>
<path d="M1140 425 c0 -37 4 -65 10 -65 6 0 10 11 10 25 0 20 5 25 25 25 14 0
25 5 25 10 0 6 -11 10 -25 10 -18 0 -25 5 -25 20 0 16 7 20 31 20 17 0 28 4
24 10 -3 6 -22 10 -41 10 l-34 0 0 -65z"/>
<path d="M1335 465 c-29 -28 -31 -51 -9 -83 13 -19 24 -22 57 -20 39 3 42 5
45 36 3 29 1 32 -22 32 -28 0 -35 -14 -11 -24 26 -9 16 -26 -15 -26 -41 0 -58
32 -35 67 14 20 22 24 46 19 30 -6 40 7 13 18 -28 11 -44 6 -69 -19z"/>
<path d="M1480 425 l0 -65 40 0 c22 0 40 5 40 10 0 6 -13 10 -30 10 -20 0 -30
5 -30 15 0 9 9 15 24 15 14 0 28 5 31 10 4 6 -7 10 -24 10 -24 0 -31 4 -31 20
0 16 7 20 30 20 17 0 30 5 30 10 0 6 -18 10 -40 10 l-40 0 0 -65z"/>
<path d="M1610 425 c0 -37 4 -65 10 -65 6 0 10 21 11 48 l1 47 20 -47 c14 -33
26 -48 39 -48 17 0 19 8 19 65 0 78 -18 88 -22 13 l-3 -53 -24 53 c-33 73 -51
69 -51 -13z"/>
<path d="M1760 425 l0 -65 40 0 c22 0 40 5 40 10 0 6 -13 10 -30 10 -20 0 -30
5 -30 15 0 9 9 15 24 15 14 0 28 5 31 10 4 6 -7 10 -25 10 -25 0 -31 4 -28 18
2 10 14 18 31 20 42 5 32 22 -13 22 l-40 0 0 -65z"/>
<path d="M1890 425 c0 -37 4 -65 10 -65 6 0 10 11 10 25 0 33 13 32 38 -2 23
-32 40 -26 20 6 -10 16 -10 23 0 33 30 30 -2 68 -59 68 -17 0 -19 -7 -19 -65z
m59 36 c18 -11 5 -31 -20 -31 -12 0 -19 7 -19 20 0 21 16 26 39 11z"/>
<path d="M2040 430 c-21 -57 -20 -96 1 -57 6 9 21 17 34 17 13 0 28 -8 34 -17
19 -35 23 -3 5 44 -19 51 -32 73 -44 73 -4 0 -18 -27 -30 -60z m50 -7 c0 -7
-7 -13 -15 -13 -16 0 -19 9 -9 35 5 13 8 14 15 3 5 -7 9 -19 9 -25z"/>
<path d="M2178 484 c-5 -4 -8 -34 -8 -66 l0 -58 40 0 c22 0 40 5 40 10 0 6
-13 10 -30 10 -28 0 -29 1 -32 56 -2 31 -6 52 -10 48z"/>
<path d="M7 428 c-10 -37 9 -124 42 -194 30 -64 128 -177 180 -207 l31 -18 0
125 c0 113 -2 126 -17 126 -48 0 -147 79 -209 164 l-21 29 -6 -25z"/>
<path d="M287 411 c6 -24 -15 -29 -35 -9 -9 9 -12 7 -12 -9 0 -42 51 -57 74
-20 8 12 8 22 0 34 -16 25 -33 28 -27 4z"/>
<path d="M474 349 c-25 -28 -94 -68 -139 -80 l-35 -10 0 -125 0 -125 43 29
c76 53 154 149 187 231 12 29 11 37 -5 67 -21 40 -26 41 -51 13z"/>
<path d="M1913 255 c0 -22 2 -30 4 -17 2 12 2 30 0 40 -3 9 -5 -1 -4 -23z"/>
<path d="M1750 256 c0 -14 4 -27 8 -30 5 -3 6 8 4 25 -5 35 -12 38 -12 5z"/>
<path d="M1882 250 c0 -19 2 -27 5 -17 2 9 2 25 0 35 -3 9 -5 1 -5 -18z"/>
<path d="M2142 250 c0 -19 2 -27 5 -17 2 9 2 25 0 35 -3 9 -5 1 -5 -18z"/>
<path d="M2208 250 c-3 -16 -1 -30 4 -30 4 0 8 14 8 30 0 17 -2 30 -4 30 -2 0
-6 -13 -8 -30z"/>
<path d="M2240 250 c0 -16 3 -30 8 -30 4 0 7 14 7 30 0 17 -3 30 -7 30 -5 0
-8 -13 -8 -30z"/>
<path d="M707 263 c-10 -10 -8 -43 2 -43 5 0 7 9 4 19 -3 13 1 21 14 24 13 3
14 5 2 6 -9 0 -19 -2 -22 -6z"/>
<path d="M1172 245 c0 -16 2 -22 5 -12 2 9 2 23 0 30 -3 6 -5 -1 -5 -18z"/>
<path d="M1010 240 c0 -11 4 -20 9 -20 5 0 7 9 4 20 -3 11 -7 20 -9 20 -2 0
-4 -9 -4 -20z"/>
<path d="M751 234 c0 -11 3 -14 6 -6 3 7 2 16 -1 19 -3 4 -6 -2 -5 -13z"/>
<path d="M773 235 c0 -6 8 -11 17 -11 9 0 17 5 17 11 0 6 -8 11 -17 11 -9 0
-17 -5 -17 -11z"/>
<path d="M821 234 c0 -11 3 -14 6 -6 3 7 2 16 -1 19 -3 4 -6 -2 -5 -13z"/>
<path d="M840 225 c0 -23 2 -24 20 -13 11 7 20 18 20 25 0 7 -9 13 -20 13 -15
0 -20 -7 -20 -25z"/>
<path d="M890 233 c0 -7 7 -13 15 -13 8 0 15 6 15 13 0 8 -7 14 -15 14 -8 0
-15 -6 -15 -14z"/>
<path d="M935 239 c-4 -6 -5 -12 -2 -15 2 -3 7 2 10 11 7 17 1 20 -8 4z"/>
<path d="M967 235 c-5 -10 0 -15 14 -15 12 0 19 5 17 12 -6 18 -25 20 -31 3z"/>
<path d="M1041 234 c0 -11 3 -14 6 -6 3 7 2 16 -1 19 -3 4 -6 -2 -5 -13z"/>
<path d="M1067 233 c3 -7 9 -13 14 -13 5 0 9 6 9 13 0 9 2 9 8 -1 5 -7 16 -10
25 -6 31 11 18 25 -22 22 -26 -2 -37 -7 -34 -15z"/>
<path d="M1190 233 c0 -15 2 -16 10 -3 9 13 11 13 21 0 9 -13 10 -13 6 0 -6
22 -37 25 -37 3z"/>
<path d="M1242 238 c2 -6 10 -14 16 -16 7 -2 10 2 6 12 -7 18 -28 22 -22 4z"/>
<path d="M1281 234 c0 -11 3 -14 6 -6 3 7 2 16 -1 19 -3 4 -6 -2 -5 -13z"/>
<path d="M1301 234 c0 -11 3 -14 6 -6 3 7 2 16 -1 19 -3 4 -6 -2 -5 -13z"/>
<path d="M1320 235 c0 -8 2 -15 4 -15 2 0 6 7 10 15 3 8 1 15 -4 15 -6 0 -10
-7 -10 -15z"/>
<path d="M1357 237 c-3 -8 1 -14 9 -14 8 0 14 6 14 14 0 17 -16 17 -23 0z"/>
<path d="M1421 234 c0 -11 3 -14 6 -6 3 7 2 16 -1 19 -3 4 -6 -2 -5 -13z"/>
<path d="M1441 234 c0 -11 3 -14 6 -6 3 7 2 16 -1 19 -3 4 -6 -2 -5 -13z"/>
<path d="M1480 233 c0 -7 7 -13 15 -13 8 0 15 6 15 13 0 8 -7 14 -15 14 -8 0
-15 -6 -15 -14z"/>
<path d="M1611 232 c-1 -31 -30 -40 -49 -16 -8 10 -12 13 -10 5 2 -8 12 -19
21 -25 21 -14 51 13 44 40 -4 16 -5 15 -6 -4z"/>
<path d="M1630 241 c0 -6 4 -13 10 -16 6 -3 7 1 4 9 -7 18 -14 21 -14 7z"/>
<path d="M1671 234 c0 -11 3 -14 6 -6 3 7 2 16 -1 19 -3 4 -6 -2 -5 -13z"/>
<path d="M1701 234 c0 -11 3 -14 6 -6 3 7 2 16 -1 19 -3 4 -6 -2 -5 -13z"/>
<path d="M1722 224 c-1 -15 2 -22 8 -19 12 7 13 32 2 39 -4 2 -9 -7 -10 -20z"/>
<path d="M1786 236 c3 -9 13 -16 22 -16 8 0 13 1 11 3 -2 1 -12 9 -22 16 -15
12 -17 12 -11 -3z"/>
<path d="M2080 235 c-7 -9 -8 -15 -2 -15 5 0 12 7 16 15 3 8 4 15 2 15 -2 0
-9 -7 -16 -15z"/>
<path d="M2111 234 c0 -11 3 -14 6 -6 3 7 2 16 -1 19 -3 4 -6 -2 -5 -13z"/>
<path d="M2170 235 c0 -8 4 -15 10 -15 5 0 7 7 4 15 -4 8 -8 15 -10 15 -2 0
-4 -7 -4 -15z"/>
<path d="M1961 224 c-1 -12 6 -25 15 -28 18 -7 44 10 44 28 0 6 -5 3 -11 -6
-14 -24 -28 -22 -39 5 -9 22 -9 22 -9 1z"/>
</g>
</svg>
